<svg id="Layer_1" data-name="Layer 1" xmlns="http://www.w3.org/2000/svg" xmlns:xlink="http://www.w3.org/1999/xlink" viewBox="0 0 1080 1080">
    <style>.cls{fill:#fff;}</style>
    <title>thecircle_logo</title>
    <path class="cls" d="M538.35,732.87c-106.52,0-192.87-86.35-192.87-192.87s86.35-192.87,192.87-192.87a192.16,192.16,0,0,1,128.88,49.39l85.92-95.65a320.26,320.26,0,0,0-214.8-82.32C360.82,218.55,216.9,362.47,216.9,540S360.82,861.45,538.35,861.45c110.74,0,208.4-56,266.21-141.23L698.08,648.13A192.67,192.67,0,0,1,538.35,732.87Z" />
    <circle class="cls" cx="710.03" cy="348.46" r="64.46" />
    <circle class="cls" cx="750.53" cy="684.77" r="64.46" />
    <path class="cls" d="M803.56,358.88A94.12,94.12,0,0,1,710,442.59c-1.92,0-3.81-.17-5.71-.29A192.83,192.83,0,0,1,723,594.76,94,94,0,0,1,839,652.94a321.66,321.66,0,0,0-35.47-294.06Z" />
</svg>